<?xml version="1.0" standalone="no"?>
<!DOCTYPE svg PUBLIC "-//W3C//DTD SVG 20010904//EN"
 "http://www.w3.org/TR/2001/REC-SVG-20010904/DTD/svg10.dtd">
<svg version="1.0" xmlns="http://www.w3.org/2000/svg"
 width="279.000000pt" height="184.000000pt" viewBox="0 0 279.000000 184.000000"
 preserveAspectRatio="xMidYMid meet">

<g transform="translate(0.000000,184.000000) scale(0.100000,-0.100000)"
fill="#000000" stroke="none">
<path d="M2426 1679 c12 -94 27 -185 31 -192 9 -15 14 -117 6 -118 -4 -1 -18
-3 -30 -5 -13 -2 -33 -6 -45 -8 -13 -2 -41 -4 -63 -5 -22 -1 -35 -5 -28 -9 6
-4 -11 -7 -37 -8 l-49 0 -11 70 c-7 39 -16 91 -21 116 -4 25 -11 66 -15 92
l-6 46 -36 -15 c-21 -8 -65 -28 -98 -43 l-62 -29 9 -43 c4 -24 18 -106 29
-183 12 -77 26 -162 31 -190 5 -27 14 -84 20 -125 27 -197 45 -283 59 -285 8
-2 56 -6 106 -10 l91 -7 -18 119 c-10 65 -23 146 -29 179 -12 72 -13 117 -2
111 4 -3 48 3 97 13 164 33 153 33 159 2 10 -49 44 -256 51 -302 9 -74 10 -74
114 -34 l93 37 -5 36 c-3 20 -11 72 -17 116 -6 44 -14 84 -17 88 -3 5 -6 28
-8 50 -1 23 -10 85 -19 137 -22 122 -24 132 -52 305 -8 55 -16 101 -17 101 -1
1 -50 5 -108 9 l-106 7 3 -23z"/>
<path d="M1393 1431 c-40 -10 -123 -59 -123 -72 0 -6 5 -7 12 -3 7 4 8 3 4 -4
-4 -6 -12 -9 -19 -7 -7 3 -25 -13 -40 -36 -25 -34 -27 -42 -15 -57 12 -15 11
-16 -4 -3 -16 12 -20 8 -39 -35 -48 -111 -62 -273 -34 -375 25 -88 86 -199
137 -249 63 -61 122 -81 236 -81 92 0 135 13 187 56 17 14 18 16 2 11 -11 -4
-16 -2 -12 5 4 6 13 8 20 5 8 -3 25 4 40 16 19 14 24 26 20 42 -5 15 -4 17 3
7 8 -11 14 -7 31 20 31 50 63 140 58 161 -3 10 -1 16 4 12 13 -7 11 182 -2
231 -27 104 -76 200 -132 261 -33 37 -105 83 -140 90 -48 10 -164 13 -194 5z
m138 -215 c66 -28 112 -103 131 -215 10 -56 9 -82 -1 -123 -7 -29 -13 -63 -14
-75 -1 -11 -5 -19 -9 -17 -4 2 -13 -4 -20 -15 -21 -29 -82 -61 -120 -63 -74
-3 -125 50 -149 155 -7 30 -16 54 -19 52 -11 -7 8 150 23 194 9 25 14 48 11
53 -3 5 -1 7 4 6 5 -2 18 6 28 18 41 45 79 54 135 30z"/>
<path d="M499 1176 c-2 -2 -33 -6 -69 -9 -84 -8 -121 -17 -114 -28 3 -5 -1 -6
-9 -3 -25 9 -157 -105 -149 -129 1 -5 -2 -6 -7 -2 -15 9 -63 -92 -56 -118 4
-15 3 -18 -3 -9 -27 39 -51 -225 -30 -320 23 -100 61 -205 93 -257 47 -75 101
-134 116 -125 7 4 9 3 5 -4 -3 -5 12 -24 34 -42 117 -93 344 -99 473 -13 32
22 35 28 25 42 -12 14 -11 14 5 2 15 -12 20 -10 43 15 46 53 92 138 110 204
24 86 23 223 -1 320 -29 119 -105 267 -129 253 -6 -3 -8 -3 -4 2 11 11 -11 47
-24 39 -6 -4 -8 -3 -5 3 9 15 -80 96 -96 87 -6 -4 -9 -4 -5 1 16 18 -50 54
-147 81 -27 8 -50 14 -51 14 0 0 -3 -2 -5 -4z m-110 -281 c6 3 9 10 6 14 -2 5
31 8 75 8 48 -1 76 -5 73 -11 -4 -5 1 -7 11 -3 9 4 15 3 11 -2 -7 -12 50 -53
60 -43 5 4 5 2 1 -5 -4 -7 9 -34 29 -62 48 -66 76 -149 82 -241 5 -67 3 -82
-20 -130 -42 -88 -120 -135 -196 -119 -46 10 -80 36 -120 95 -18 27 -38 48
-43 46 -5 -1 -7 2 -4 7 6 10 -27 115 -34 107 -3 -2 -7 37 -8 88 -3 74 1 105
18 157 12 35 26 67 32 70 7 4 6 15 -2 30 -10 22 -10 23 4 5 8 -10 20 -15 25
-11z m-54 -44 c3 -5 2 -12 -3 -15 -5 -3 -9 1 -9 9 0 17 3 19 12 6z m-128 -576
c0 -8 -4 -12 -9 -9 -5 3 -6 10 -3 15 9 13 12 11 12 -6z"/>
</g>
</svg>
