<?xml version="1.0" standalone="no"?>
<!DOCTYPE svg PUBLIC "-//W3C//DTD SVG 20010904//EN"
 "http://www.w3.org/TR/2001/REC-SVG-20010904/DTD/svg10.dtd">
<svg version="1.0" xmlns="http://www.w3.org/2000/svg"
 width="312.000000pt" height="227.000000pt" viewBox="0 0 312.000000 227.000000"
 preserveAspectRatio="xMidYMid meet">

<g transform="translate(0.000000,227.000000) scale(0.100000,-0.100000)"
fill="#000000" stroke="none">
<path d="M212 2156 c-35 -6 -61 -14 -57 -18 4 -4 -2 -4 -13 -2 -10 3 -37 1
-60 -5 -46 -13 -45 3 -12 -181 10 -58 26 -149 35 -204 9 -54 20 -108 25 -121
5 -13 6 -25 4 -28 -3 -3 4 -56 15 -119 11 -62 32 -180 47 -263 14 -82 27 -151
28 -151 10 -11 159 -53 168 -48 7 4 8 3 4 -4 -6 -10 7 -17 17 -9 2 1 11 -4 19
-10 13 -11 21 0 56 72 23 46 40 90 38 97 -1 7 -1 10 1 6 2 -4 10 -5 17 -2 9 3
16 -19 25 -81 9 -57 17 -85 26 -85 8 0 59 -15 114 -34 l100 -34 98 196 c54
109 97 203 96 210 0 7 2 11 5 8 9 -10 123 224 116 237 -4 7 -3 8 1 4 8 -7 183
323 184 347 1 4 -6 5 -15 2 -8 -3 -13 -2 -10 2 6 10 -183 104 -194 97 -5 -3
-41 -71 -81 -152 -113 -231 -230 -476 -240 -500 -10 -27 -24 -30 -26 -5 0 18
-2 33 -23 179 l-14 93 -80 -5 c-45 -3 -91 -5 -103 -5 -14 0 -24 -9 -32 -30 -5
-17 -20 -44 -31 -60 -12 -17 -19 -30 -15 -30 3 0 -2 -14 -10 -30 -9 -17 -13
-36 -9 -42 4 -6 3 -8 -3 -5 -6 4 -14 -1 -18 -11 -13 -33 -27 22 -41 158 -2 19
-17 132 -33 250 -16 118 -33 241 -36 273 -4 31 -10 56 -14 56 -3 -1 -34 -7
-69 -13z m258 -636 c0 -5 -2 -10 -4 -10 -3 0 -8 5 -11 10 -3 6 -1 10 4 10 6 0
11 -4 11 -10z m363 -45 c-3 -9 -8 -14 -10 -11 -3 3 -2 9 2 15 9 16 15 13 8 -4z"/>
<path d="M1416 1487 c-32 -89 -74 -204 -92 -256 -19 -52 -48 -130 -65 -175
-17 -45 -42 -110 -56 -145 -13 -35 -22 -69 -20 -76 4 -9 33 -21 97 -40 3 -1
19 -7 35 -14 102 -43 269 -100 278 -94 6 3 7 1 3 -5 -4 -7 -1 -12 7 -12 17 0
29 24 21 44 -3 8 -1 17 5 21 7 3 8 0 5 -9 -3 -9 -2 -16 4 -16 13 0 24 29 15
42 -3 6 -1 8 5 5 5 -4 24 12 41 35 l30 41 -82 32 c-45 18 -110 43 -145 55 -49
18 -62 27 -58 39 17 53 40 117 42 120 2 2 26 -6 55 -18 28 -12 57 -20 65 -17
9 3 12 1 9 -4 -3 -6 3 -10 13 -10 11 0 31 15 46 34 28 37 33 52 14 40 -7 -4
-8 -3 -4 5 4 6 11 9 16 6 4 -3 13 2 20 10 10 12 10 19 -1 33 -13 15 -12 16 3
4 14 -11 18 -10 27 6 12 22 18 18 -92 58 -37 14 -72 22 -79 18 -7 -4 -8 -3 -4
4 4 7 1 12 -8 12 -13 0 -13 4 0 36 8 20 13 43 10 51 -3 8 -1 11 4 8 6 -3 10 1
10 10 0 27 28 28 90 6 33 -12 66 -19 73 -15 6 4 9 3 4 -1 -5 -6 72 -45 90 -45
4 0 105 143 110 157 4 11 2 14 -8 11 -8 -3 -18 1 -24 7 -15 18 -223 88 -236
79 -7 -4 -9 -3 -6 3 5 9 -128 67 -155 68 -3 0 -10 3 -14 8 -26 26 -41 2 -98
-156z"/>
<path d="M2163 1360 c3 -11 2 -18 -2 -16 -11 7 -43 -52 -36 -64 4 -6 1 -9 -7
-8 -8 2 -13 -6 -12 -19 0 -12 -4 -19 -9 -16 -6 4 -8 -1 -4 -10 3 -9 2 -16 -4
-14 -5 1 -43 -61 -83 -138 -41 -77 -95 -178 -120 -225 -47 -89 -54 -106 -34
-94 7 5 8 3 4 -5 -5 -7 -10 -10 -14 -7 -5 6 -31 -24 -32 -37 0 -5 5 -5 12 -1
7 4 8 3 4 -5 -4 -6 -11 -9 -15 -7 -4 3 -18 -16 -30 -41 -18 -37 -20 -48 -9
-54 7 -5 19 -7 26 -4 7 3 11 1 7 -4 -3 -5 48 -36 112 -69 65 -33 147 -76 182
-96 l64 -37 23 22 c13 12 21 26 18 31 -3 5 0 7 8 6 7 -2 12 3 10 10 -1 8 1 11
6 8 5 -3 25 12 45 32 l37 38 -38 19 c-20 11 -76 41 -124 68 -50 28 -92 46 -99
41 -8 -4 -9 -3 -5 4 4 7 2 12 -4 12 -8 0 31 91 56 128 1 2 36 -14 77 -36 l74
-40 53 53 c35 36 50 57 45 67 -5 7 -5 10 0 6 9 -8 35 9 35 23 0 11 -159 91
-169 85 -13 -8 -10 27 5 61 8 17 11 39 8 50 -4 14 -4 15 4 4 8 -11 12 -10 21
7 10 18 16 20 37 12 33 -13 37 -13 28 3 -4 7 -3 9 2 4 5 -5 9 -14 9 -20 0 -7
8 -11 18 -11 9 1 15 -1 13 -5 -2 -3 26 -23 64 -43 l67 -37 72 74 c69 70 71 74
51 85 -12 6 -28 9 -36 6 -8 -3 -12 -1 -9 4 5 7 -96 74 -115 75 -7 1 -116 59
-222 119 -56 31 -72 33 -65 6z m442 -220 c3 -5 1 -10 -4 -10 -6 0 -11 5 -11
10 0 6 2 10 4 10 3 0 8 -4 11 -10z m-584 -433 c-10 -9 -11 -8 -5 6 3 10 9 15
12 12 3 -3 0 -11 -7 -18z m-228 -92 c-3 -9 -8 -14 -10 -11 -3 3 -2 9 2 15 9
16 15 13 8 -4z m471 -115 c-6 -6 -10 -3 -10 10 0 13 4 16 10 10 7 -7 7 -13 0
-20z m-274 6 c-7 -7 -13 -7 -20 0 -6 6 -3 10 10 10 13 0 16 -4 10 -10z m181
-83 c13 -16 12 -17 -3 -4 -17 13 -22 21 -14 21 2 0 10 -8 17 -17z"/>
<path d="M2865 1180 c-3 -5 -3 -15 0 -20 4 -6 1 -9 -6 -8 -15 4 -70 -73 -64
-89 2 -7 -1 -15 -7 -19 -7 -5 -8 -2 -3 7 19 33 -7 -3 -69 -94 -37 -54 -64
-102 -61 -107 3 -5 0 -12 -6 -16 -8 -4 -9 -3 -5 4 4 7 5 12 3 12 -2 0 -21 -26
-43 -57 -21 -32 -43 -61 -49 -65 -5 -4 -6 -8 -1 -8 5 0 1 -9 -8 -19 -10 -11
-15 -25 -10 -32 4 -7 3 -10 -4 -5 -6 3 -20 -6 -31 -20 -20 -26 -20 -28 -4 -46
9 -10 23 -16 30 -13 9 3 11 0 7 -7 -5 -8 -2 -9 10 -5 10 4 15 3 11 -3 -3 -5 7
-17 22 -27 15 -10 30 -20 33 -23 14 -16 83 -49 91 -44 19 12 79 116 73 126 -4
6 -3 8 3 5 14 -9 135 171 126 186 -3 5 -1 7 5 3 11 -6 55 57 55 80 0 7 3 11 7
9 4 -2 31 32 61 77 50 75 52 82 35 92 -10 6 -41 28 -69 49 -28 21 -57 35 -65
32 -7 -2 -11 -1 -7 4 3 5 -8 19 -24 30 -18 13 -32 17 -36 11z m194 -134 c9
-11 9 -16 0 -22 -7 -4 -9 -3 -5 4 3 6 -2 15 -11 21 -10 6 -13 11 -7 11 6 0 17
-6 23 -14z m-453 -286 c0 -12 -4 -16 -9 -11 -5 5 -6 14 -3 20 10 15 12 14 12
-9z m244 -54 c0 -2 -8 -10 -17 -17 -16 -13 -17 -12 -4 4 13 16 21 21 21 13z
m-80 -120 c0 -2 -6 -9 -14 -15 -11 -9 -16 -9 -22 0 -4 7 -3 9 4 5 6 -3 13 -2
17 4 6 10 15 14 15 6z"/>
<path d="M2414 484 c-22 -8 -41 -14 -43 -14 -2 0 0 -7 3 -16 3 -8 2 -12 -3 -9
-31 19 -54 -96 -30 -149 17 -37 83 -77 129 -78 42 0 97 28 117 61 17 27 20
114 5 119 -7 2 -10 7 -7 12 9 15 -53 67 -93 77 -29 8 -50 7 -78 -3z m-32 -193
c3 10 6 9 10 -3 10 -26 -24 -15 -40 13 l-14 24 19 -24 c15 -17 22 -20 25 -10z"/>
</g>
</svg>
