<?xml version="1.0" standalone="no"?>
<!DOCTYPE svg PUBLIC "-//W3C//DTD SVG 20010904//EN"
 "http://www.w3.org/TR/2001/REC-SVG-20010904/DTD/svg10.dtd">
<svg version="1.0" xmlns="http://www.w3.org/2000/svg"
 width="548.000000pt" height="650.000000pt" viewBox="0 0 548.000000 650.000000"
 preserveAspectRatio="xMidYMid meet">

<g transform="translate(0.000000,650.000000) scale(0.100000,-0.100000)"
fill="#000000" stroke="none">
<path d="M2200 6483 c0 -10 7 -46 15 -80 8 -34 19 -87 23 -117 l9 -55 -76 -25
c-90 -29 -170 -46 -175 -37 -2 3 -22 65 -46 136 -23 72 -45 133 -49 138 -10
10 -112 -14 -117 -28 -3 -6 11 -65 31 -131 19 -65 60 -208 92 -316 31 -110 61
-198 68 -198 6 0 35 7 64 16 53 15 53 15 46 50 -3 19 -14 60 -24 92 -10 31
-22 71 -25 89 l-7 32 68 21 c37 11 93 23 124 27 l55 5 24 -113 c13 -63 27
-118 31 -123 4 -5 28 -5 53 -2 42 7 46 9 46 36 0 16 -18 156 -40 312 -22 156
-40 284 -40 286 0 1 -34 2 -75 2 -65 0 -75 -2 -75 -17z"/>
<path d="M2980 6470 c0 -11 7 -64 15 -118 14 -99 65 -509 65 -530 0 -8 21 -12
60 -12 l61 0 28 63 c30 66 31 66 54 -13 l13 -45 59 0 59 0 103 310 c57 171
103 316 103 323 0 10 -19 12 -77 10 l-78 -3 -61 -205 c-33 -113 -64 -204 -70
-202 -5 2 -14 20 -19 40 -18 64 -78 51 -110 -23 -17 -40 -19 -35 -49 197 -14
108 -29 204 -32 212 -5 12 -21 16 -65 16 -52 0 -59 -2 -59 -20z"/>
<path d="M3626 6398 c-2 -7 -18 -148 -36 -313 -17 -165 -34 -312 -37 -326 l-5
-26 134 -7 c73 -3 182 -13 243 -21 86 -11 111 -12 117 -2 10 15 10 104 1 110
-5 3 -71 10 -148 17 -206 17 -189 9 -182 86 2 36 9 70 15 76 6 6 52 3 131 -7
67 -9 125 -14 128 -11 4 3 8 31 11 61 4 50 3 54 -19 59 -21 5 -230 36 -241 36
-5 0 8 120 14 126 6 5 205 -29 332 -57 71 -15 92 -16 98 -6 9 15 22 96 16 102
-7 8 -222 54 -368 81 -208 37 -200 36 -204 22z"/>
<path d="M1423 6375 c-77 -21 -126 -49 -165 -95 -78 -90 -77 -215 1 -401 57
-135 142 -203 256 -203 144 1 257 74 291 190 21 73 14 188 -16 289 -60 193
-185 269 -367 220z m167 -151 c24 -10 47 -28 54 -43 18 -34 56 -193 56 -232 0
-106 -100 -173 -198 -134 -72 29 -126 106 -158 226 -16 61 -16 66 1 102 37 79
154 117 245 81z"/>
<path d="M2673 6230 c-51 -5 -119 -11 -152 -15 l-59 -7 -4 -55 c-1 -30 0 -57
4 -60 5 -2 65 3 135 12 71 8 171 19 223 23 l95 7 3 53 3 52 -78 -1 c-43 -1
-120 -5 -170 -9z"/>
<path d="M4180 5900 l-86 -329 56 -11 c74 -15 279 -65 362 -88 l68 -19 6 32
c3 18 7 48 7 66 l2 33 -160 39 c-88 21 -162 40 -163 42 -6 6 21 115 32 130 9
13 29 10 135 -20 69 -19 125 -34 127 -32 1 1 9 27 17 58 l14 57 -101 30 c-55
17 -114 34 -130 38 -26 6 -28 9 -22 45 3 21 10 49 16 64 12 31 6 32 225 -42
216 -74 198 -72 219 -24 10 22 16 46 13 54 -6 17 -193 92 -401 161 -76 25
-141 46 -145 46 -3 0 -44 -148 -91 -330z"/>
<path d="M824 6165 c-94 -30 -176 -91 -210 -157 -25 -49 -29 -137 -9 -199 31
-96 97 -210 152 -266 89 -88 185 -103 312 -47 181 80 219 262 105 500 -39 83
-110 154 -172 172 -50 15 -125 14 -178 -3z m176 -153 c29 -15 39 -30 72 -112
21 -52 41 -111 44 -131 13 -81 -39 -152 -120 -164 -87 -13 -174 51 -237 177
-54 106 -31 174 76 224 59 28 117 30 165 6z"/>
<path d="M4752 5656 c-68 -166 -126 -308 -128 -316 -4 -11 20 -24 93 -49 54
-18 154 -58 223 -88 69 -30 130 -57 136 -59 11 -5 44 73 44 103 0 15 -68 48
-222 108 -108 42 -102 30 -59 128 11 26 23 47 26 47 3 0 56 -22 118 -50 62
-27 117 -50 123 -50 11 0 55 100 48 111 -2 3 -57 30 -124 59 -133 60 -127 50
-89 138 l18 42 113 -56 c62 -31 148 -77 191 -101 44 -24 85 -42 92 -39 19 7
59 87 48 96 -26 23 -409 227 -493 262 l-35 15 -123 -301z"/>
<path d="M255 5866 c-22 -7 -60 -25 -85 -40 -210 -131 -210 -320 -1 -548 121
-132 268 -143 416 -30 125 95 138 256 34 438 -92 162 -220 225 -364 180z m181
-154 c11 -9 44 -59 73 -110 60 -105 69 -160 37 -220 -18 -35 -81 -71 -125 -72
-76 0 -155 53 -220 149 -52 76 -56 94 -36 146 16 42 50 76 110 108 41 22 134
22 161 -1z"/>
<path d="M2654 5412 c-7 -4 -13 -57 -16 -142 -4 -101 -11 -160 -31 -235 -14
-55 -28 -117 -32 -137 -3 -21 -9 -38 -13 -38 -4 0 -44 9 -90 19 l-83 18 3 -46
3 -46 54 -8 c30 -4 57 -9 59 -12 2 -2 -12 -23 -32 -46 -56 -67 -103 -214 -129
-412 l-13 -92 -49 -5 c-57 -6 -88 -24 -119 -72 -35 -51 -44 -86 -51 -183 -5
-82 -4 -94 17 -135 18 -35 35 -51 75 -70 l52 -25 3 -55 c4 -89 -2 -178 -17
-280 -7 -52 -16 -157 -19 -232 -3 -75 -12 -163 -20 -195 -28 -114 -29 -199 -2
-263 9 -22 -67 -66 -142 -81 -60 -13 -63 -15 -59 -39 4 -23 -2 -28 -88 -69
-170 -80 -233 -158 -202 -249 20 -57 71 -141 133 -215 58 -72 82 -116 90 -168
4 -21 15 -47 25 -58 11 -11 19 -28 19 -37 0 -14 7 -16 39 -11 32 4 40 2 44
-14 3 -10 18 -24 34 -31 15 -7 30 -13 32 -14 4 -3 -118 -212 -189 -324 -66
-105 -125 -223 -112 -228 6 -2 -7 -31 -29 -64 -46 -71 -47 -88 -15 -148 13
-25 49 -110 81 -190 32 -80 75 -180 96 -222 22 -43 39 -89 39 -104 0 -19 -22
-50 -80 -112 -90 -96 -141 -167 -134 -187 3 -7 15 -15 28 -17 42 -8 251 22
340 50 l88 27 -5 85 c-8 121 -49 230 -95 253 -20 9 -33 31 -53 89 -15 43 -57
138 -93 213 -83 169 -86 183 -51 230 16 20 34 34 40 31 13 -5 143 172 256 347
l62 97 98 0 98 0 47 -76 c26 -41 78 -112 116 -157 38 -45 88 -112 111 -149 34
-54 47 -67 67 -68 35 0 100 -67 100 -102 0 -55 43 -278 71 -366 28 -86 29 -96
18 -150 -20 -98 -22 -134 -10 -189 15 -63 30 -76 126 -104 39 -12 105 -32 148
-45 96 -29 167 -32 190 -6 41 45 9 103 -103 187 -97 72 -170 141 -170 159 0 8
-11 23 -25 34 -16 12 -25 30 -25 47 0 15 -9 61 -19 103 -22 88 -47 229 -56
315 -6 62 -25 108 -73 171 -24 33 -28 44 -20 62 11 23 16 15 -138 217 -104
137 -163 222 -164 233 0 16 27 26 84 30 26 2 67 14 90 27 37 20 41 27 44 63 3
40 5 43 50 59 91 34 202 97 236 135 85 94 63 183 -72 296 -48 40 -71 66 -71
82 -1 24 -71 98 -179 191 -35 29 -71 69 -80 88 -16 34 -16 36 16 94 29 51 36
79 52 207 11 81 34 204 50 274 37 154 60 314 60 427 0 67 5 94 22 130 18 36
22 62 22 121 -1 41 -6 87 -12 101 -8 20 -7 41 3 80 17 69 27 467 14 531 -6 26
-17 52 -25 59 -26 22 -14 28 27 14 64 -23 98 -20 109 11 24 63 0 77 -155 91
-64 5 -75 9 -70 22 4 9 11 41 17 71 5 30 25 120 43 200 47 204 57 259 52 274
-3 7 -24 18 -48 25 -24 7 -64 20 -88 27 -47 15 -208 19 -227 6z m-10 -527 c28
-9 89 -15 140 -15 108 0 125 -7 108 -44 -13 -30 -24 -31 -82 -11 -23 8 -72 20
-108 25 -109 18 -112 19 -112 40 0 11 1 20 3 20 1 0 24 -7 51 -15z m21 -139
c55 -14 138 -28 185 -31 159 -13 164 -24 161 -335 -2 -206 -12 -320 -28 -320
-3 0 -24 16 -45 36 -108 97 -246 97 -346 1 -41 -39 -57 -70 -66 -124 -21 -137
81 -280 213 -298 50 -7 165 15 185 35 6 6 17 10 24 10 31 0 -4 -323 -54 -509
-14 -51 -32 -146 -40 -210 -22 -179 -31 -213 -78 -282 -59 -89 -108 -124 -203
-145 -127 -28 -242 3 -316 85 -62 68 -73 164 -37 332 13 61 20 133 20 204 0
61 7 148 16 195 9 47 17 146 18 220 l3 134 31 8 c106 28 193 234 148 352 -16
42 -79 116 -99 116 -24 0 27 291 72 411 26 67 95 152 120 145 9 -3 61 -16 116
-30z m-285 -556 c40 -29 80 -111 80 -167 0 -86 -69 -216 -131 -249 -38 -19
-97 -14 -135 11 -47 31 -64 72 -64 160 1 134 30 211 97 257 37 25 108 20 153
-12z m496 -65 c70 -41 111 -97 123 -170 26 -148 -30 -237 -166 -264 -126 -24
-233 34 -278 153 -24 63 -18 161 14 208 68 99 206 132 307 73z m-626 -1479
c66 -72 116 -90 240 -91 121 0 178 19 241 81 l36 36 6 -25 c6 -23 54 -71 175
-175 66 -56 75 -72 42 -72 -32 0 -75 -26 -108 -65 l-29 -36 -72 77 c-39 42
-79 89 -88 105 -17 28 -33 38 -33 21 0 -4 25 -38 55 -75 l56 -67 -15 -103 c-8
-56 -18 -160 -22 -231 -6 -112 -10 -133 -30 -164 -31 -46 -31 -83 2 -115 l26
-27 -24 -9 c-75 -28 -288 -20 -490 19 -132 26 -142 31 -135 83 3 23 15 119 26
212 28 221 35 257 82 402 37 117 51 187 29 153 -5 -8 -12 -31 -15 -51 -6 -33
-12 -40 -58 -60 -29 -13 -55 -24 -59 -26 -9 -6 -56 96 -63 137 l-6 36 58 12
c32 6 74 23 93 36 19 14 36 25 37 26 2 0 21 -20 43 -44z m-227 -108 c2 -13 7
-30 11 -39 5 -11 -7 -21 -47 -37 -86 -36 -146 -78 -164 -117 -15 -32 -15 -38
-1 -67 9 -18 73 -97 142 -175 l125 -141 -9 -59 c-6 -32 -10 -61 -10 -65 0 -9
-54 -38 -71 -38 -7 0 -4 10 9 23 31 33 53 97 34 97 -5 0 -13 -17 -18 -37 -12
-50 -46 -58 -63 -14 -7 16 -11 40 -8 53 l4 23 8 -22 c8 -24 25 -32 25 -12 0 7
8 18 18 25 15 12 12 13 -26 14 -37 0 -44 4 -54 28 -7 15 -28 45 -48 67 -68 76
-143 197 -161 258 -19 67 46 138 195 213 48 24 92 44 96 44 4 0 10 -10 13 -22z
m42 -91 l15 -24 50 25 c28 14 53 23 55 20 3 -2 -8 -42 -25 -89 -18 -53 -36
-138 -49 -232 -11 -82 -22 -151 -24 -153 -6 -7 -235 254 -253 288 -28 53 12
99 136 157 36 17 68 31 72 31 4 0 14 -11 23 -23z m970 -67 c3 -5 2 -10 -4 -10
-5 0 -13 5 -16 10 -3 6 -2 10 4 10 5 0 13 -4 16 -10z m12 -46 c147 -118 189
-176 180 -252 -4 -34 -14 -53 -43 -84 -43 -44 -177 -113 -288 -149 -65 -21
-70 -22 -97 -6 -30 16 -39 11 -17 -11 7 -7 20 -12 31 -12 10 0 16 -4 12 -9 -3
-6 -17 -6 -34 -1 -23 6 -33 4 -45 -9 -23 -25 -20 -37 4 -16 19 18 20 17 20 -2
0 -31 -26 -49 -46 -33 -31 26 -36 48 -19 84 23 48 81 84 169 106 110 28 171
57 211 101 62 69 44 115 -91 230 l-85 74 21 17 c34 27 54 22 117 -28z m-207
-35 c46 -39 53 -41 94 -36 42 6 47 4 96 -40 53 -47 80 -88 80 -120 0 -49 -132
-130 -240 -148 -25 -4 -63 -16 -84 -27 l-39 -20 6 138 c6 133 24 294 34 294 2
0 26 -19 53 -41z m89 12 c28 -21 21 -41 -15 -41 -26 0 -40 20 -30 45 7 19 16
19 45 -4z m-39 -525 c0 -14 -4 -28 -10 -31 -6 -4 -10 7 -10 24 0 17 5 31 10
31 6 0 10 -11 10 -24z m-30 -4 c0 -20 -26 -60 -33 -52 -3 3 -2 20 0 38 6 34
33 46 33 14z m-50 -15 c0 -28 -17 -47 -44 -47 -19 0 -19 1 2 20 12 12 22 27
22 35 0 8 5 15 10 15 6 0 10 -10 10 -23z m215 -641 c33 -49 39 -65 51 -161 8
-59 23 -150 35 -203 50 -238 51 -230 -17 -239 -39 -5 -39 -5 -50 39 -6 23 -23
88 -38 142 -14 55 -34 154 -43 220 -15 113 -18 123 -49 156 l-34 36 28 16 c15
9 36 26 46 37 10 11 22 19 26 16 4 -2 24 -29 45 -59z m-1107 24 c37 -17 42
-22 33 -38 -5 -10 -17 -24 -25 -32 -31 -25 -18 -78 53 -224 38 -78 80 -172 94
-211 14 -38 28 -77 32 -86 4 -12 -7 -23 -45 -42 l-50 -26 -45 92 c-25 51 -68
151 -96 222 -28 72 -59 144 -70 161 -29 48 -24 91 16 152 20 28 41 52 48 52 6
0 31 -9 55 -20z m259 -656 c30 -52 29 -78 -2 -92 -40 -19 -89 -14 -126 11 -51
34 -45 56 26 94 33 18 65 31 70 29 6 -1 20 -20 32 -42z m1011 14 c18 -18 14
-62 -9 -92 -26 -33 -35 -33 -92 4 -40 25 -47 34 -47 61 0 27 3 31 23 26 12 -2
33 -1 47 3 38 12 65 11 78 -2z m-1171 -174 c4 -10 -12 -34 -48 -70 -92 -93
-111 -59 -27 49 31 39 64 48 75 21z m1292 -24 c56 -45 78 -77 63 -92 -15 -15
-44 5 -77 52 -16 23 -41 48 -57 56 -34 18 -35 24 -4 24 13 0 47 -18 75 -40z"/>
<path d="M2395 3760 c-15 -25 -56 -181 -62 -237 -7 -70 4 -93 43 -93 44 0 73
39 109 149 34 100 55 192 41 180 -3 -3 -15 -39 -25 -80 -33 -128 -64 -200 -94
-223 -68 -50 -81 45 -29 217 28 91 32 111 17 87z"/>
<path d="M2598 3423 c12 -8 22 -23 22 -31 0 -13 2 -14 13 -3 10 10 7 16 -12
32 -13 10 -28 19 -35 18 -6 0 -1 -7 12 -16z"/>
<path d="M2533 3358 c-33 -56 -127 -76 -194 -43 l-34 16 23 -20 c13 -12 42
-26 64 -31 34 -10 46 -8 83 10 40 19 83 65 72 77 -3 2 -9 -2 -14 -9z"/>
<path d="M2316 4018 c-19 -26 -11 -45 21 -53 31 -7 46 5 41 35 -5 33 -44 45
-62 18z"/>
<path d="M2752 3968 c-20 -20 -13 -48 15 -59 29 -11 45 -2 50 30 4 31 -43 51
-65 29z"/>
</g>
</svg>
