<?xml version="1.0" standalone="no"?>
<!DOCTYPE svg PUBLIC "-//W3C//DTD SVG 20010904//EN"
 "http://www.w3.org/TR/2001/REC-SVG-20010904/DTD/svg10.dtd">
<svg version="1.0" xmlns="http://www.w3.org/2000/svg"
 width="548.000000pt" height="142.000000pt" viewBox="0 0 548.000000 142.000000"
 preserveAspectRatio="xMidYMid meet">

<g transform="translate(0.000000,142.000000) scale(0.100000,-0.100000)"
fill="#000000" stroke="none">
<path d="M2200 1413 c0 -5 7 -42 16 -83 9 -41 19 -96 23 -122 l8 -47 -61 -20
c-84 -28 -185 -51 -190 -43 -2 4 -22 66 -45 137 -23 72 -46 134 -50 138 -8 8
-100 -10 -114 -23 -5 -4 5 -57 23 -116 17 -60 59 -205 92 -321 35 -121 66
-213 73 -213 6 0 35 7 64 16 l53 15 -7 37 c-4 20 -15 62 -25 92 -10 30 -21 69
-25 87 l-6 32 68 21 c37 11 93 23 124 27 l55 5 24 -113 c13 -63 27 -118 31
-123 4 -5 28 -5 53 -2 42 7 46 10 46 36 0 27 -65 508 -76 563 -5 27 -7 27 -80
27 -41 0 -74 -3 -74 -7z"/>
<path d="M2980 1400 c0 -11 7 -64 15 -118 14 -99 65 -509 65 -530 0 -8 21 -12
60 -12 l61 0 28 63 c30 66 31 66 54 -13 l13 -45 59 0 c59 0 59 0 71 35 41 115
194 588 194 598 0 8 -24 12 -75 12 -89 0 -73 26 -148 -236 -29 -101 -56 -182
-61 -181 -5 2 -14 21 -21 43 -18 66 -78 54 -110 -21 -17 -40 -18 -36 -50 199
-14 109 -29 204 -32 212 -4 10 -23 14 -64 14 -52 0 -59 -2 -59 -20z"/>
<path d="M3626 1328 c-2 -7 -18 -148 -36 -313 -17 -165 -34 -312 -37 -326 l-5
-26 134 -7 c73 -3 182 -13 243 -21 86 -11 111 -12 117 -2 10 16 10 104 0 110
-4 3 -70 10 -147 17 -206 17 -189 9 -182 86 2 36 9 70 15 76 6 6 52 3 131 -7
67 -9 125 -14 128 -11 4 3 8 31 11 61 5 62 14 56 -118 75 -154 22 -140 16
-140 63 0 23 3 52 6 64 7 27 6 27 259 -23 129 -25 171 -30 177 -21 9 15 22 96
16 103 -12 11 -519 114 -565 114 -2 0 -5 -6 -7 -12z"/>
<path d="M1423 1305 c-116 -32 -189 -95 -213 -181 -27 -95 20 -293 94 -402 37
-54 117 -106 175 -116 51 -8 144 10 202 40 131 66 172 232 109 439 -46 150
-126 225 -248 231 -40 2 -88 -2 -119 -11z m167 -151 c24 -10 47 -28 54 -43 18
-34 56 -193 56 -232 0 -106 -100 -173 -198 -134 -72 29 -130 115 -162 241 -11
44 -11 55 5 87 37 79 154 117 245 81z"/>
<path d="M2673 1160 c-51 -5 -119 -11 -152 -15 l-59 -7 -4 -55 c-1 -30 0 -57
4 -59 3 -2 64 3 135 11 70 8 171 18 223 23 l95 7 3 53 3 52 -78 -1 c-43 -1
-120 -5 -170 -9z"/>
<path d="M4180 830 l-86 -329 56 -11 c74 -15 279 -65 362 -88 l68 -19 6 32 c3
18 7 48 7 66 l2 33 -160 39 c-88 21 -162 40 -163 42 -6 6 21 115 32 130 9 13
29 10 135 -20 69 -19 125 -34 127 -32 1 1 9 27 17 58 l14 57 -101 30 c-55 17
-114 34 -130 38 -26 6 -28 9 -22 45 3 21 10 49 16 64 12 31 6 32 225 -43 218
-74 199 -72 220 -19 9 25 14 50 11 56 -10 16 -510 201 -545 201 -3 0 -44 -148
-91 -330z"/>
<path d="M824 1095 c-94 -30 -176 -91 -210 -157 -25 -49 -29 -137 -9 -199 55
-170 161 -306 261 -335 125 -36 286 34 346 151 83 160 -48 500 -210 545 -49
13 -127 11 -178 -5z m176 -153 c29 -15 39 -30 72 -112 21 -52 41 -111 44 -131
13 -81 -39 -152 -120 -164 -87 -13 -174 51 -237 177 -54 106 -31 174 76 224
59 28 117 30 165 6z"/>
<path d="M4752 586 c-143 -347 -139 -336 -120 -336 18 0 273 -98 372 -144 61
-28 81 -34 88 -24 10 16 28 78 28 96 0 14 -70 48 -222 107 -108 42 -102 30
-59 128 11 26 23 47 26 47 3 0 56 -22 118 -50 62 -27 117 -50 123 -50 13 0 55
102 45 112 -3 4 -58 30 -121 58 -63 29 -116 53 -118 55 -8 7 43 115 55 115 15
0 170 -76 295 -146 45 -24 87 -43 94 -40 18 7 57 87 47 96 -26 23 -409 227
-493 262 l-35 15 -123 -301z"/>
<path d="M250 794 c-102 -32 -208 -132 -231 -217 -26 -98 24 -230 136 -354
108 -119 205 -149 327 -103 213 81 266 271 137 496 -93 165 -220 226 -369 178z
m183 -148 c25 -19 113 -174 126 -222 31 -113 -69 -207 -187 -175 -26 6 -63 25
-82 40 -41 32 -103 111 -126 160 -30 63 13 143 105 191 43 23 137 26 164 6z"/>
</g>
</svg>
