<svg version="1.0" xmlns="http://www.w3.org/2000/svg"
 width="201.000000pt" height="548.000000pt" viewBox="0 0 201.000000 548.000000"
 preserveAspectRatio="xMidYMid meet">

<g transform="translate(0.000000,548.000000) scale(0.100000,-0.100000)"
fill="#000000" stroke="none">
<path d="M1004 5392 c-7 -4 -13 -57 -16 -142 -3 -103 -11 -159 -31 -235 -14
-55 -29 -117 -32 -137 -3 -21 -9 -38 -13 -38 -4 0 -44 9 -90 19 l-83 18 3 -46
3 -46 54 -8 c30 -4 57 -9 59 -12 2 -2 -12 -23 -32 -46 -56 -66 -100 -203 -129
-409 l-13 -95 -34 -3 c-60 -4 -77 -11 -108 -43 -49 -51 -69 -103 -76 -209 -6
-87 -5 -99 16 -140 18 -35 34 -50 75 -70 l52 -25 3 -55 c4 -86 -3 -211 -13
-255 -5 -22 -14 -120 -19 -218 -5 -98 -16 -203 -24 -235 -28 -113 -29 -198 -2
-262 9 -22 -67 -66 -142 -81 -60 -13 -63 -15 -59 -39 4 -23 -2 -28 -88 -69
-170 -80 -233 -158 -202 -249 20 -57 71 -141 133 -216 62 -75 81 -111 90 -164
3 -23 15 -50 25 -61 11 -11 19 -28 19 -37 0 -14 7 -16 39 -11 32 4 40 2 44
-14 3 -10 18 -24 34 -31 15 -7 30 -13 32 -14 4 -3 -118 -212 -189 -324 -66
-105 -125 -223 -112 -228 6 -2 -7 -31 -29 -64 -46 -71 -47 -88 -15 -148 13
-25 49 -110 81 -190 32 -80 75 -180 96 -222 22 -43 39 -89 39 -104 0 -19 -22
-50 -80 -112 -102 -109 -144 -170 -129 -189 23 -27 225 -8 363 35 l88 27 -5
85 c-8 121 -49 230 -95 253 -20 9 -33 31 -53 89 -15 43 -57 138 -93 213 -83
169 -86 183 -51 230 16 20 34 34 40 31 13 -5 143 172 256 347 l62 97 98 0 98
0 47 -76 c26 -41 78 -112 116 -157 38 -45 88 -112 111 -149 34 -54 47 -67 67
-68 35 0 100 -67 100 -102 0 -55 43 -278 71 -366 28 -86 29 -96 18 -150 -20
-98 -22 -134 -10 -189 15 -63 30 -76 126 -104 39 -12 105 -32 148 -45 96 -29
167 -32 190 -6 41 45 9 103 -103 187 -97 72 -170 141 -170 159 0 8 -11 23 -25
34 -15 12 -25 30 -25 45 0 14 -11 72 -25 129 -14 57 -30 141 -36 188 -19 156
-29 188 -73 253 -35 51 -41 66 -33 84 8 18 2 32 -35 80 -204 267 -267 354
-268 369 0 16 27 26 84 30 26 2 67 14 90 27 37 20 41 27 44 63 3 40 5 43 50
59 154 57 272 145 285 214 14 67 -25 137 -121 217 -48 40 -71 66 -71 82 -1 24
-71 98 -179 191 -35 29 -71 69 -80 88 -16 34 -16 36 15 92 32 58 42 100 63
276 6 50 24 142 40 205 35 136 60 319 60 432 0 64 5 92 22 127 18 36 22 62 21
121 0 41 -6 88 -12 103 -8 22 -8 41 3 80 9 34 16 127 19 267 5 218 -2 298 -29
321 -26 22 -14 28 27 14 64 -23 98 -20 109 11 19 49 13 61 -36 73 -25 7 -81
14 -124 18 l-77 6 13 26 c8 15 18 59 24 99 5 39 19 104 29 144 32 117 63 277
58 291 -3 7 -24 19 -48 26 -24 7 -64 20 -88 27 -47 15 -208 19 -227 6z m-10
-527 c28 -9 89 -15 140 -15 108 0 125 -7 108 -44 -13 -30 -24 -31 -82 -11 -23
8 -72 20 -108 25 -109 18 -112 19 -112 40 0 11 1 20 3 20 1 0 24 -7 51 -15z
m21 -139 c55 -14 138 -28 185 -31 158 -13 165 -26 162 -325 -2 -202 -13 -330
-29 -330 -3 0 -24 16 -45 36 -84 76 -180 94 -273 50 -138 -64 -181 -214 -101
-348 39 -66 107 -113 175 -123 50 -7 165 15 185 35 24 24 36 9 36 -42 0 -99
-31 -321 -61 -437 -17 -64 -37 -168 -45 -231 -22 -178 -31 -212 -78 -281 -59
-89 -108 -124 -203 -145 -127 -28 -242 3 -316 85 -62 68 -73 164 -37 332 13
61 20 133 20 204 0 61 7 148 16 195 9 47 17 146 18 220 l3 134 31 8 c106 28
193 234 148 352 -16 42 -79 116 -99 116 -24 0 27 291 72 411 26 67 95 152 120
145 9 -3 61 -16 116 -30z m-287 -554 c40 -29 82 -114 82 -169 0 -86 -68 -216
-131 -249 -38 -19 -97 -14 -135 11 -47 31 -64 72 -64 160 1 134 30 211 97 257
36 25 108 20 151 -10z m496 -66 c91 -54 129 -121 129 -231 1 -135 -76 -207
-223 -208 -106 -1 -186 55 -225 157 -24 63 -18 161 14 208 68 99 206 132 305
74z m-624 -1480 c66 -72 116 -90 240 -91 121 0 178 19 241 81 36 35 36 35 43
12 8 -30 28 -52 101 -112 81 -67 135 -118 135 -128 0 -4 -9 -8 -20 -8 -32 0
-75 -26 -108 -65 l-29 -36 -72 77 c-39 42 -79 89 -88 105 -17 28 -33 38 -33
21 0 -4 25 -38 55 -75 l56 -67 -15 -103 c-8 -56 -18 -160 -22 -231 -6 -112
-10 -133 -30 -164 -31 -46 -31 -83 2 -115 l26 -27 -24 -9 c-76 -29 -295 -20
-492 20 -134 27 -140 31 -133 82 3 23 15 119 26 212 28 219 35 259 76 385 36
112 54 196 36 170 -5 -8 -13 -31 -16 -51 -6 -33 -12 -40 -58 -60 -29 -13 -55
-24 -59 -26 -9 -5 -55 95 -63 137 l-6 36 58 12 c32 6 74 23 93 36 19 14 36 25
37 26 2 0 21 -20 43 -44z m-223 -123 c6 -21 11 -38 10 -38 -1 0 -35 -16 -76
-35 -121 -57 -169 -117 -139 -173 7 -14 70 -91 140 -171 110 -125 127 -149
123 -173 -2 -15 -7 -45 -10 -65 -4 -29 -13 -42 -35 -53 -42 -22 -57 -19 -32 8
31 33 53 97 34 97 -5 0 -13 -17 -18 -37 -5 -23 -16 -39 -26 -41 -23 -4 -50 40
-45 75 4 27 5 27 12 6 8 -24 25 -32 25 -12 0 7 8 18 18 25 15 12 12 13 -26 14
-37 0 -44 4 -54 28 -7 15 -28 45 -48 67 -68 76 -143 197 -161 258 -19 67 48
141 195 213 49 24 92 44 95 44 4 0 11 -17 18 -37z m38 -76 l15 -24 50 25 c28
14 53 23 55 20 3 -2 -8 -42 -25 -89 -18 -53 -36 -138 -49 -232 -11 -82 -22
-151 -24 -153 -6 -7 -235 254 -253 288 -28 53 12 99 136 157 36 17 68 31 72
31 4 0 14 -11 23 -23z m970 -67 c3 -5 2 -10 -4 -10 -5 0 -13 5 -16 10 -3 6 -2
10 4 10 5 0 13 -4 16 -10z m7 -41 c84 -66 148 -131 170 -173 31 -60 21 -117
-28 -168 -43 -44 -177 -113 -288 -149 -65 -21 -70 -22 -97 -6 -30 16 -39 11
-17 -11 7 -7 20 -12 31 -12 10 0 16 -4 12 -9 -3 -6 -17 -6 -34 -1 -23 6 -33 4
-45 -9 -23 -25 -20 -37 4 -16 19 18 20 17 20 -2 0 -31 -26 -49 -46 -33 -31 26
-36 48 -19 84 23 48 81 84 169 106 110 28 171 57 211 101 62 69 44 115 -91
230 l-85 74 21 17 c33 27 53 22 112 -23z m-202 -40 c46 -39 53 -41 94 -36 42
6 47 4 96 -40 53 -47 80 -88 80 -120 0 -49 -132 -130 -240 -148 -25 -4 -63
-16 -84 -27 l-39 -20 6 138 c6 133 24 294 34 294 2 0 26 -19 53 -41z m89 12
c28 -21 21 -41 -14 -41 -29 0 -39 13 -30 40 8 24 13 25 44 1z m-39 -525 c0
-14 -4 -28 -10 -31 -6 -4 -10 7 -10 24 0 17 5 31 10 31 6 0 10 -11 10 -24z
m-30 -4 c0 -20 -26 -60 -33 -52 -3 3 -2 20 0 38 6 34 33 46 33 14z m-50 -15
c0 -28 -17 -47 -44 -47 -19 0 -19 1 2 20 12 12 22 27 22 35 0 8 5 15 10 15 6
0 10 -10 10 -23z m239 -682 c11 -23 24 -82 30 -135 6 -52 20 -135 31 -185 51
-237 52 -233 -16 -242 l-39 -5 -12 49 c-7 26 -24 90 -38 142 -14 52 -33 148
-42 215 -15 113 -18 123 -49 156 l-34 36 28 16 c15 9 36 26 47 38 l19 21 28
-33 c15 -18 37 -51 47 -73z m-1131 65 c37 -17 42 -22 33 -38 -5 -10 -17 -24
-25 -32 -31 -25 -18 -78 53 -224 38 -78 80 -172 94 -211 14 -38 28 -77 32 -86
4 -12 -7 -23 -45 -42 l-50 -26 -45 92 c-25 51 -68 151 -96 222 -28 72 -59 144
-70 161 -30 49 -25 96 17 154 20 27 41 50 47 50 7 0 31 -9 55 -20z m259 -656
c30 -52 29 -78 -2 -92 -40 -19 -89 -14 -126 11 -51 34 -45 56 26 94 33 18 65
31 70 29 6 -1 20 -20 32 -42z m1011 14 c18 -18 14 -62 -9 -92 -26 -33 -35 -33
-92 4 -40 25 -47 34 -47 61 0 27 3 31 23 26 12 -2 33 -1 47 3 38 12 65 11 78
-2z m-1175 -185 c-3 -23 -90 -112 -110 -113 -26 0 -11 39 40 103 34 43 74 49
70 10z m1275 3 c49 -36 94 -86 89 -99 -8 -22 -42 -9 -67 25 -30 40 -60 69 -86
85 -18 11 -17 12 7 12 14 1 40 -10 57 -23z"/>
<path d="M745 3740 c-15 -25 -56 -181 -62 -237 -7 -69 4 -93 42 -93 46 0 72
35 109 148 34 105 55 193 42 181 -3 -3 -15 -39 -25 -80 -33 -128 -64 -200 -94
-223 -68 -50 -81 45 -29 217 28 91 32 111 17 87z"/>
<path d="M948 3403 c12 -8 22 -23 22 -31 0 -13 2 -14 13 -3 10 10 7 16 -12 32
-13 10 -28 19 -35 18 -6 0 -1 -7 12 -16z"/>
<path d="M883 3338 c-33 -56 -127 -76 -194 -43 l-34 16 23 -20 c13 -12 42 -26
64 -31 34 -10 46 -8 83 10 40 19 83 65 72 77 -3 2 -9 -2 -14 -9z"/>
<path d="M666 3998 c-19 -26 -11 -45 21 -53 31 -7 46 5 41 35 -5 33 -44 45
-62 18z"/>
<path d="M1100 3945 c-16 -19 -4 -52 23 -59 25 -6 39 5 44 33 5 33 -45 52 -67
26z"/>
</g>
</svg>
